<svg id="color_line" height="512" viewBox="0 0 74 74" width="512" xmlns="http://www.w3.org/2000/svg" data-name="color line"><path d="m32.631 42.463a9.765 9.765 0 0 1 3.8-2.849c2.016-.693 4.237-.164 6.354-.414 2.178-.257 4.2-1.334 6.379-1.56 4.2-.435 8 2.289 11.329 4.89.3.234.6.469.907.7-11.484 19.043-21.66 24.743-28.769-.767z" fill="#b98c6c"/><path d="m44.571 60.1a6.361 6.361 0 0 1 -.864-.059c-4.684-.634-8.464-6.341-11.558-17.441a.5.5 0 0 1 .114-.474 10.262 10.262 0 0 1 4.01-2.982 11.378 11.378 0 0 1 4.025-.386 17.537 17.537 0 0 0 2.432-.058 16.748 16.748 0 0 0 3.039-.754 17.133 17.133 0 0 1 3.347-.807c4.321-.449 8.144 2.221 11.688 4.993.3.232.6.465.9.692a.5.5 0 0 1 .128.659c-6.732 11.168-12.394 16.617-17.261 16.617zm-11.383-17.5c2.92 10.354 6.5 15.89 10.653 16.456 4.577.625 10.1-4.514 16.9-15.7-.186-.143-.371-.287-.555-.431-3.383-2.646-7.025-5.2-10.969-4.786a16.083 16.083 0 0 0 -3.15.766 17.793 17.793 0 0 1 -3.222.793 18.251 18.251 0 0 1 -2.573.059 10.4 10.4 0 0 0 -3.676.332 8.726 8.726 0 0 0 -3.408 2.511z" fill="#323c6b"/><path d="m71 44.644a3.879 3.879 0 0 1 -1.648 3.178l-32.352 19.965a5.994 5.994 0 0 1 -6.236.119l-16.786-6.525v-21.847a19.871 19.871 0 0 1 9.782 0l13.64 3.824a4.014 4.014 0 0 1 2.791 3.813 3.775 3.775 0 0 1 -.119.993 4.029 4.029 0 0 1 -1.986 2.562l27.691-9.726a3.886 3.886 0 0 1 5.223 3.644z" fill="#fcd462"/><path d="m71 44.64a3.873 3.873 0 0 1 -1.65 3.18l-32.35 19.97a6.008 6.008 0 0 1 -6.24.12l-16.78-6.53v-3.36l16.78 6.52a6.008 6.008 0 0 0 6.24-.12l32.35-19.96a3.907 3.907 0 0 0 1.26-1.49 3.787 3.787 0 0 1 .39 1.67z" fill="#f7be56"/><path d="m62.1 25.448c-1.984 1.988-7.628 2.612-9.408-1.524-1.943-4.506 2.21-9.7 9.4-10.446a8.756 8.756 0 0 1 8.908 4.9c-4.376.216-6.918 5.082-8.9 7.07z" fill="#6fc666"/><path d="m32.365 20.615c1.912 2.888 8.918 4.849 12.477.083 3.882-5.192.2-12.514-8.743-14.958-6.417-1.757-10.841 1.9-12.89 4.218 5.516 1.187 7.244 7.768 9.156 10.657z" fill="#6fc666"/><path d="m71 18.38c-4.38.21-6.92 5.08-8.9 7.07s-7.63 2.61-9.41-1.53a5.872 5.872 0 0 1 -.48-2.34.7.7 0 0 0 .05.13c1.78 4.13 7.42 3.51 9.4 1.52 1.83-1.83 4.12-6.08 7.88-6.93a10.949 10.949 0 0 1 1.46 2.08z" fill="#65b54e"/><path d="m23.21 9.96c.06-.07.12-.14.19-.21-.05.08-.09.15-.14.22-.02 0-.03-.01-.05-.01z" fill="#6fc666"/><path d="m43.26 22.26c-3.75 2.66-9.23.86-10.89-1.65-1.84-2.76-3.5-8.91-8.48-10.47 5.18.66 8.17 6.2 10.19 8.82 1.57 2.03 5.71 3.73 9.18 3.3z" fill="#65b54e"/><path d="m23.89 10.14c-.23-.02-.46-.04-.7-.05.02-.04.05-.08.07-.12.22.05.43.11.63.17z" fill="#6fc666"/><g fill="#323c6b"><path d="m47.608 38.43a.5.5 0 0 1 -.5-.5v-2.408a19.418 19.418 0 0 0 -1.743-8 49.158 49.158 0 0 0 -8.814-13.309.5.5 0 0 1 .725-.689 50.22 50.22 0 0 1 9 13.583 20.432 20.432 0 0 1 1.833 8.41v2.413a.5.5 0 0 1 -.501.5z"/><path d="m36.14 51.681a4.456 4.456 0 0 1 -1.312-.192l-8.918-2.407a.5.5 0 0 1 .26-.966l8.937 2.412a3.79 3.79 0 0 0 2.761-.25.5.5 0 1 1 .447.895 4.909 4.909 0 0 1 -2.175.508z"/><path d="m34.813 2.919a.473.473 0 0 1 -.069 0q-.5-.068-1-.1a.5.5 0 1 1 .068-1q.53.037 1.065.11a.5.5 0 0 1 -.067 1z"/><path d="m43.917 6.743a.5.5 0 0 1 -.3-.1 19.822 19.822 0 0 0 -6.857-3.315.5.5 0 1 1 .264-.965 20.84 20.84 0 0 1 7.2 3.482.5.5 0 0 1 -.3.9z"/><path d="m57.271 59.334a.5.5 0 0 1 -.263-.925l.542-.334a.5.5 0 1 1 .525.851l-.542.334a.5.5 0 0 1 -.262.074z"/><path d="m49.5 64.1a.5.5 0 0 1 -.263-.925l5.917-3.651a.5.5 0 1 1 .525.851l-5.917 3.651a.5.5 0 0 1 -.262.074z"/><path d="m33.784 69.229a6.479 6.479 0 0 1 -3.275-.891l-16.709-6.491a.5.5 0 0 1 -.318-.466v-21.847a.5.5 0 0 1 .361-.48 20.488 20.488 0 0 1 10.071 0l13.628 3.818a4.5 4.5 0 0 1 3.158 4.299 4.217 4.217 0 0 1 -.138 1.125 4.422 4.422 0 0 1 -.5 1.209l25.548-8.978a4.384 4.384 0 0 1 4.029 7.7l-32.379 19.985a6.463 6.463 0 0 1 -3.476 1.017zm-19.305-8.19 16.464 6.4a5.513 5.513 0 0 0 5.786-.075l32.36-19.964a3.385 3.385 0 0 0 -3.14-5.928l-27.693 9.728a.5.5 0 0 1 -.406-.91 3.5 3.5 0 0 0 1.74-2.245 3.236 3.236 0 0 0 .105-.872 3.5 3.5 0 0 0 -2.444-3.337l-13.626-3.82a19.421 19.421 0 0 0 -9.146-.1z"/></g><path d="m46.012 51.933a.65.65 0 0 1 -.217-1.263l.913-.323a.65.65 0 1 1 .434 1.226l-.913.323a.65.65 0 0 1 -.217.037z" fill="#fff"/><path d="m36.049 55.19a4.261 4.261 0 0 1 -1.266-.181l-.88-.237a.65.65 0 1 1 .34-1.255l.9.244a4.638 4.638 0 0 0 2.815-.239l5.255-1.922a.65.65 0 0 1 .447 1.221l-5.26 1.926a7.252 7.252 0 0 1 -2.351.443z" fill="#fff"/><path d="m57.738 27.494a7.25 7.25 0 0 1 -1.365-.126 5.467 5.467 0 0 1 -4.142-3.247 6.4 6.4 0 0 1 .448-5.9c1.667-2.846 5.167-4.807 9.361-5.244a9.209 9.209 0 0 1 9.4 5.159.5.5 0 0 1 -.415.737c-3.108.153-5.271 2.882-7.007 5.075a22.755 22.755 0 0 1 -1.567 1.852 6.883 6.883 0 0 1 -4.713 1.694zm5.425-13.573a9.835 9.835 0 0 0 -1.019.054c-3.879.4-7.095 2.182-8.6 4.755a5.43 5.43 0 0 0 -.394 5 4.463 4.463 0 0 0 3.411 2.661 6.25 6.25 0 0 0 5.183-1.291 22.285 22.285 0 0 0 1.489-1.763c1.63-2.058 3.815-4.817 6.947-5.365a8.131 8.131 0 0 0 -7.017-4.051z" fill="#323c6b"/><path d="m38.927 24.076c-.089 0-.177 0-.266 0-2.764-.078-5.524-1.387-6.713-3.182a25.731 25.731 0 0 1 -1.417-2.618c-1.541-3.11-3.459-6.976-7.431-7.83a.5.5 0 0 1 -.269-.82c2.139-2.416 6.723-6.2 13.4-4.369 5.08 1.389 8.887 4.47 10.184 8.243a7.9 7.9 0 0 1 -1.173 7.5 7.658 7.658 0 0 1 -6.315 3.076zm-14.786-14.384c3.884 1.276 5.836 5.211 7.286 8.136a25.045 25.045 0 0 0 1.355 2.511c1 1.516 3.487 2.665 5.907 2.734a6.779 6.779 0 0 0 5.752-2.673 6.926 6.926 0 0 0 1.027-6.573c-1.188-3.46-4.74-6.3-9.5-7.6a11.761 11.761 0 0 0 -11.827 3.465z" fill="#323c6b"/><path d="m47.246 32.276a.5.5 0 0 1 -.444-.729c4.644-9.047 10.886-11.085 11.149-11.168a.5.5 0 0 1 .3.954c-.061.019-6.12 2.024-10.561 10.671a.5.5 0 0 1 -.444.272z" fill="#323c6b"/><rect fill="#fe7058" height="29.041" rx="1.875" width="12.813" x="2.664" y="35.938"/><path d="m15.48 60.32v2.78a1.878 1.878 0 0 1 -1.88 1.88h-9.06a1.878 1.878 0 0 1 -1.88-1.88v-2.78a1.876 1.876 0 0 0 1.88 1.87h9.06a1.876 1.876 0 0 0 1.88-1.87z" fill="#ea6453"/><path d="m13.6 65.478h-9.061a2.378 2.378 0 0 1 -2.375-2.378v-25.287a2.378 2.378 0 0 1 2.375-2.375h9.061a2.378 2.378 0 0 1 2.375 2.375v25.287a2.378 2.378 0 0 1 -2.375 2.378zm-9.061-29.04a1.377 1.377 0 0 0 -1.375 1.375v25.287a1.377 1.377 0 0 0 1.375 1.375h9.061a1.377 1.377 0 0 0 1.377-1.375v-25.287a1.377 1.377 0 0 0 -1.377-1.375z" fill="#323c6b"/></svg>